<svg fill="#000000" xmlns="http://www.w3.org/2000/svg"  viewBox="0 0 32 32" width="256px" height="256px"><path d="M 8 4 L 8 6 L 24 6 L 24 4 L 8 4 z M 24 6 L 24 8 L 26 8 L 26 6 L 24 6 z M 26 8 L 26 21 L 28 21 L 28 8 L 26 8 z M 26 21 L 24 21 L 24 23 L 26 23 L 26 21 z M 24 23 L 10 23 L 10 25 L 24 25 L 24 23 z M 10 25 L 8 25 L 8 27 L 10 27 L 10 25 z M 8 27 L 6 27 L 6 29 L 8 29 L 8 27 z M 6 27 L 6 8 L 4 8 L 4 27 L 6 27 z M 6 8 L 8 8 L 8 6 L 6 6 L 6 8 z M 15 9 L 15 11 L 17 11 L 17 9 L 15 9 z M 14 13 L 14 15 L 15 15 L 15 20 L 18 20 L 18 18 L 17 18 L 17 13 L 14 13 z"/></svg>